<svg width="24" height="24" viewBox="0 0 24 24" fill="none" xmlns="http://www.w3.org/2000/svg">
<g clip-path="url(#clip0_403_157)">
<rect width="24" height="24" fill="white"/>
<g clip-path="url(#clip1_403_157)">
<path d="M0 0H24V24H0V0Z" fill="white"/>
<path d="M18.9242 7.27085C19.6752 7.24751 20.4471 7.28025 21.1998 7.2675C21.3969 7.26417 21.5579 7.33819 21.6924 7.48109C22.0743 7.88684 21.8409 8.59807 21.2601 8.63084C21.0603 8.64162 20.8491 8.63494 20.6453 8.63492L19.4374 8.63367C19.2503 8.63311 18.977 8.61279 18.8117 8.67774C18.585 8.7668 18.4234 8.95271 18.37 9.19064C18.3179 9.42303 18.2794 9.65951 18.2327 9.89297C18.118 10.4543 18.0092 11.0168 17.9065 11.5804L17.1795 15.3216L16.95 16.5086C16.9041 16.7479 16.8419 17.109 16.7644 17.3297C16.6547 17.6353 16.4729 17.9099 16.2344 18.1302C15.9228 18.4139 15.5353 18.6007 15.1193 18.6676C14.8037 18.7193 14.1185 18.7008 13.7771 18.7006L11.6208 18.702L8.49613 18.7006C7.9303 18.7009 7.28001 18.7164 6.72358 18.6897C6.19485 18.6303 5.74651 18.4504 5.36936 18.0607C5.16119 17.8421 5.00181 17.5818 4.9018 17.2969C4.83163 17.0905 4.77299 16.7357 4.72548 16.5108C4.60084 15.9272 4.48276 15.3422 4.37134 14.7559C4.22856 14.0549 4.09248 13.3525 3.96316 12.6489C3.89894 12.3026 3.78243 11.8113 3.78883 11.4756C3.79959 10.9727 4.00715 10.4941 4.36691 10.1426C4.66356 9.85725 5.04135 9.67076 5.44832 9.60884C5.74141 9.56311 6.31651 9.58463 6.64633 9.58315C7.43725 9.57675 8.22822 9.57464 9.01916 9.57682L13.8971 9.57889C14.8844 9.57291 15.8718 9.5753 16.8591 9.58606C16.8909 9.40868 16.9428 9.23164 16.9803 9.05857C17.0762 8.61645 17.1756 8.26486 17.4909 7.92059C17.883 7.49239 18.3513 7.29877 18.9242 7.27085Z" fill="black"/>
<path d="M11.37 10.9117C11.7594 10.8907 12.241 10.914 12.6392 10.907C12.8389 10.9035 13.3303 10.8927 13.4988 10.9123C13.5454 10.9176 13.5896 10.9361 13.626 10.9657C13.7721 11.083 13.67 11.5444 13.6434 11.7103C13.6007 11.977 13.6217 12.393 13.449 12.6011C13.421 12.6261 13.3895 12.6469 13.3555 12.6628C13.3153 12.6814 13.2708 12.6874 13.2269 12.6901C12.9488 12.7077 12.6593 12.692 12.38 12.6919C12.1001 12.6918 11.8105 12.7068 11.5317 12.6888C11.4881 12.686 11.4442 12.6804 11.403 12.6651C11.3164 12.6327 11.2622 12.5685 11.2276 12.4843C11.2084 12.4375 11.1983 12.3903 11.1938 12.34C11.1781 12.1647 11.168 11.1384 11.2147 11.0353C11.2471 10.9637 11.2996 10.9383 11.37 10.9117Z" fill="white"/>
<path d="M8.26471 10.9113C8.94271 10.8845 9.66058 10.9167 10.3403 10.917C10.6574 10.9171 10.5246 11.5964 10.5446 11.8009C10.56 11.9572 10.5444 12.2119 10.5346 12.3733C10.5281 12.486 10.4292 12.5776 10.3392 12.6381C10.1291 12.733 8.92818 12.6302 8.62473 12.6707C8.50743 12.6864 8.26961 12.5763 8.24233 12.4401C8.16013 12.0296 8.13379 11.5834 8.08525 11.1653C8.06837 11.0204 8.1486 10.9548 8.26471 10.9113Z" fill="white"/>
<path d="M5.73263 10.9127L5.75044 10.9113C6.16128 10.8814 6.62203 10.9228 7.03789 10.907C7.08169 10.9053 7.14687 10.9108 7.19035 10.9191C7.40888 10.9611 7.44938 11.1719 7.4689 11.3596C7.50167 11.6702 7.55949 11.9644 7.58342 12.2744C7.59272 12.3957 7.56619 12.4861 7.48181 12.5753C7.36924 12.6943 7.18857 12.6721 7.03695 12.6711L5.35997 12.6684C5.31741 12.5053 5.2932 12.3304 5.25425 12.1668C5.13059 11.6478 5.05538 11.0682 5.73263 10.9127Z" fill="white"/>
<path d="M14.7114 10.904C15.3369 10.9071 15.9866 10.8968 16.6097 10.9114C16.4874 11.4973 16.4367 12.0981 16.3255 12.6813L16.0804 12.6799L15.0415 12.6812C14.5273 12.6821 14.0775 12.7879 14.2014 12.0649C14.2503 11.7796 14.2577 11.4594 14.3241 11.1744C14.3676 10.9878 14.5395 10.9147 14.7114 10.904Z" fill="white"/>
<path d="M5.63898 13.3847C5.71637 13.3779 5.79468 13.378 5.87249 13.3789C6.37782 13.3844 6.88504 13.3697 7.38986 13.3866C7.493 13.3901 7.58017 13.4317 7.64364 13.5142C7.67514 13.5551 7.69813 13.6018 7.71118 13.6517C7.76012 13.8319 7.88748 14.7812 7.8594 14.9359C7.84208 15.0313 7.78942 15.09 7.71118 15.1425C7.67575 15.1573 7.63811 15.1662 7.59979 15.1688C7.43024 15.1822 7.12339 15.1708 6.93882 15.1697L5.85165 15.1681C5.80342 14.9939 5.75225 14.6791 5.71522 14.4922C5.64993 14.1628 5.56042 13.7839 5.51221 13.4542C5.55374 13.4251 5.59368 13.4072 5.63898 13.3847Z" fill="white"/>
<path d="M14.262 13.3857C14.3561 13.3781 14.4519 13.3777 14.5465 13.379C15.035 13.3856 15.5259 13.3697 16.0137 13.388C16.0712 13.3902 16.12 13.4165 16.1693 13.4438C16.1347 13.6413 15.8236 15.1502 15.8057 15.1753C15.5409 15.175 14.1673 15.1993 14.0497 15.1576C13.9915 15.1369 13.9468 15.0845 13.9208 15.03C13.8923 14.9704 13.8862 14.9071 13.8873 14.8417C13.8914 14.5978 13.9496 14.3435 13.9827 14.1016C14.0047 13.9417 14.0006 13.7469 14.0573 13.5961C14.0977 13.4889 14.1598 13.4334 14.262 13.3857Z" fill="white"/>
<path d="M11.5011 13.3752C11.8145 13.369 12.1335 13.3822 12.4484 13.3774C12.6493 13.3743 12.8537 13.3729 13.0556 13.3859C13.2258 13.3969 13.3478 13.5449 13.3494 13.7138C13.3382 14.0384 13.2644 14.3877 13.237 14.7141C13.2225 14.8864 13.1478 14.997 13.0148 15.0975C12.8792 15.1688 12.7637 15.162 12.6152 15.1575C12.2482 15.1464 11.8819 15.1607 11.5151 15.1532C11.3921 15.1558 11.2259 15.0615 11.2181 14.9221C11.195 14.5149 11.1987 14.0871 11.2105 13.6789C11.2159 13.4918 11.324 13.4014 11.5011 13.3752Z" fill="white"/>
<path d="M8.577 13.3856C8.89922 13.3681 9.22704 13.3799 9.54985 13.3799C9.73144 13.38 10.1424 13.3537 10.3053 13.4C10.3831 13.4221 10.4486 13.4789 10.4845 13.5508C10.5054 13.5926 10.512 13.6374 10.5157 13.6837C10.5287 13.8489 10.5325 14.8415 10.4966 14.9485C10.4641 15.0453 10.403 15.0909 10.3146 15.1347C10.1351 15.1867 9.73226 15.1533 9.52974 15.1547C9.33256 15.1561 9.13243 15.1693 8.93569 15.161C8.886 15.1589 8.83606 15.152 8.78832 15.1377C8.68484 15.1067 8.60726 15.0297 8.55776 14.9352C8.49375 14.8129 8.36239 13.6703 8.40856 13.5451C8.43912 13.4622 8.50004 13.4209 8.577 13.3856Z" fill="white"/>
<path d="M5.94336 15.7792C6.30261 15.7688 6.69198 15.7909 7.05544 15.7841C7.26022 15.7925 7.47221 15.7694 7.67591 15.787C8.03734 15.8183 8.04387 16.2347 8.07561 16.4955C8.10966 16.7649 8.13859 17.0348 8.16235 17.3052L7.25359 17.3056C6.87448 17.3059 6.46712 17.3642 6.2379 16.9848C6.1227 16.7942 6.11705 16.5928 6.06788 16.3805C6.02155 16.1805 5.97488 15.9822 5.94336 15.7792Z" fill="white"/>
<path d="M14.0085 15.787C14.1953 15.7746 14.4608 15.7839 14.653 15.7834C15.0089 15.7801 15.3649 15.7798 15.7208 15.7825C15.6578 16.0614 15.6326 16.3884 15.5736 16.6716C15.5212 16.9237 15.4085 17.0789 15.1954 17.2169C14.9502 17.3335 14.6967 17.3084 14.4313 17.3079L13.5645 17.3008C13.5869 17.0479 13.6908 16.1585 13.7814 15.9633C13.8262 15.8668 13.913 15.8207 14.0085 15.787Z" fill="white"/>
<path d="M11.4156 15.8001C11.6933 15.7905 11.9823 15.798 12.2607 15.7972C12.4189 15.7966 12.7652 15.7748 12.8964 15.8276C13.2381 15.9651 13.011 16.5082 13.0035 16.7822C13.0024 16.8224 12.9336 17.2779 12.9251 17.2968L12.9021 17.303L11.2024 17.308L11.2006 16.5105C11.1998 16.3585 11.1941 16.2015 11.204 16.0503C11.213 15.9134 11.2904 15.8368 11.4156 15.8001Z" fill="white"/>
<path d="M8.89737 15.7996L8.92392 15.7989C9.28076 15.7894 9.63935 15.8039 9.99656 15.7963C10.1841 15.7924 10.4619 15.7669 10.5128 16.0131C10.5388 16.1385 10.5289 16.3301 10.5294 16.4608C10.5312 16.7412 10.5293 17.0216 10.5237 17.3019L10.3038 17.3021C9.80426 17.3 9.30469 17.3004 8.80514 17.3033C8.77053 17.0403 8.73752 16.7772 8.70612 16.5138C8.67312 16.2398 8.55973 15.8993 8.89737 15.7996Z" fill="white"/>
<path d="M7.0211 5.54297L9.0518 5.54454C9.05009 5.59085 9.04931 5.63719 9.0495 5.68352C9.05327 6.07638 9.26681 6.06703 9.54045 6.23733C10.0822 6.57445 10.4547 7.13787 10.5139 7.77762C10.5316 7.96868 10.5274 8.15906 10.5277 8.34935L10.5298 9.08095L8.96796 9.0762L5.50472 9.07533C5.50868 8.71111 5.49788 8.34766 5.50188 7.98527C5.50964 7.28512 5.85162 6.65616 6.44081 6.27644C6.60338 6.17166 6.783 6.11243 6.91922 5.99805C7.03495 5.90088 7.01899 5.69184 7.0211 5.54297Z" fill="black"/>
<path d="M13.6596 4.86825L13.6745 4.86703C14.4437 4.80855 15.5513 5.04 16.1589 5.53509C16.5557 5.85848 16.6916 6.35796 16.2986 6.74967C15.781 7.2656 14.8167 7.51415 14.1007 7.53647C13.2469 7.57064 12.2479 7.40568 11.5605 6.86175C11.3862 6.72379 11.2041 6.47723 11.1989 6.24635C11.1839 5.57543 11.9984 5.20964 12.5373 5.04602C12.9153 4.9304 13.2743 4.88986 13.6596 4.86825Z" fill="black"/>
<path d="M13.7348 5.55952L13.7442 5.55856C14.1064 5.52518 14.5559 5.61858 14.8453 5.85378C15.0786 6.04341 15.1187 6.3503 14.9062 6.57518C14.6756 6.81912 14.2809 6.91477 13.9555 6.92876C13.5898 6.93928 13.1973 6.87863 12.8951 6.66242C12.5734 6.42633 12.5665 6.06017 12.8961 5.82689C13.1584 5.64132 13.4218 5.588 13.7348 5.55952Z" fill="white"/>
<path d="M13.7655 6.01648L13.7846 6.01486C14.0745 5.99299 14.374 6.06246 14.5979 6.25399C14.3974 6.40076 14.1795 6.44843 13.9367 6.46212C13.6216 6.47381 13.3714 6.41583 13.1045 6.25022C13.3628 6.10322 13.4658 6.04414 13.7655 6.01648Z" fill="black"/>
<path d="M11.0982 7.07227C11.6737 7.60816 12.4585 7.87566 13.2266 7.97135C14.393 8.11662 15.6222 7.87655 16.5623 7.15308C16.5502 7.5018 16.5577 7.89213 16.5568 8.24402C16.5584 8.523 16.5573 8.80198 16.5536 9.08093L11.0899 9.07713C11.084 8.40884 11.0868 7.74049 11.0982 7.07227Z" fill="black"/>
<path d="M6.43604 19.1609C6.88311 19.1583 7.33018 19.1583 7.77725 19.1608C8.07793 19.6049 8.58291 19.6012 8.89294 19.163L10.2411 19.1609C10.1921 19.517 10.0826 19.7831 9.85838 20.0667C8.83908 21.3574 6.66713 20.8543 6.43604 19.1609Z" fill="black"/>
<path d="M11.3618 19.1597C11.8083 19.1577 12.2548 19.1587 12.7013 19.1627C12.7688 19.2559 12.8199 19.3169 12.9175 19.3821C13.0578 19.4776 13.2313 19.5113 13.3971 19.475C13.5934 19.4317 13.7036 19.3231 13.8093 19.1635C14.2511 19.1578 14.7086 19.1616 15.1509 19.1637C15.1007 19.5335 14.9922 19.7816 14.7631 20.0801C14.7573 20.0875 14.7513 20.0949 14.7453 20.1022C14.4145 20.5009 13.926 20.7409 13.4118 20.7841C12.8979 20.8294 12.3872 20.667 11.9938 20.3333C11.6531 20.0442 11.3996 19.6081 11.3618 19.1597Z" fill="black"/>
<path d="M7.02698 3.40125C7.6428 3.37577 8.27817 3.41646 8.89586 3.3974C9.02951 3.39565 9.14887 3.41606 9.24379 3.51776C9.38822 3.67249 9.34357 3.97957 9.34432 4.182C9.34727 4.48469 9.34772 4.78739 9.34563 5.09008L9.07615 5.08875L6.72705 5.0868L6.7255 4.18467C6.72501 3.88612 6.65072 3.48708 7.02698 3.40125Z" fill="black"/>
</g>
</g>
<defs>
<clipPath id="clip0_403_157">
<rect width="24" height="24" fill="white"/>
</clipPath>
<clipPath id="clip1_403_157">
<rect width="24" height="24" fill="white"/>
</clipPath>
</defs>
</svg>
